<?xml version="1.0" encoding="utf-8"?>
<!-- Generator: Adobe Illustrator 16.0.0, SVG Export Plug-In . SVG Version: 6.00 Build 0)  -->
<!DOCTYPE svg PUBLIC "-//W3C//DTD SVG 1.1//EN" "http://www.w3.org/Graphics/SVG/1.1/DTD/svg11.dtd">
<svg version="1.1" id="Layer_1" xmlns="http://www.w3.org/2000/svg" xmlns:xlink="http://www.w3.org/1999/xlink" x="0px" y="0px"
	 width="1920px" height="1080px" viewBox="0 0 1920 1080" enable-background="new 0 0 1920 1080" xml:space="preserve">
<g>
	<path id="_Pencil" d="M1647.271,769.573h71.942V592.189c0-43.905,26.275-73.678,67.593-73.678
		c41.033,0,61.251,24.256,61.251,67.593v183.44H1920V571.688c0-70.777-38.417-114.114-106.038-114.114
		c-47.09,0-79.734,21.953-96.198,58.351h-1.451v-52.578h-69.042V769.573L1647.271,769.573z M719.432,500.76
		c-4.892-84.307-54.882-151.233-135.782-151.233c-88.977,0-146.759,80.548-146.759,208.741
		c0,130.091,57.782,208.369,147.327,208.369c76.834,0,129.726-58.996,135.498-148.629h-67.905
		c-6.654,45.375-30.341,72.621-66.739,72.621c-45.64,0-75.1-48.388-75.1-132.361c0-82.447,29.176-132.361,74.531-132.361
		c38.416,0,61.25,32.159,67.023,74.89L719.432,500.76L719.432,500.76z M924.424,768.969c80.547,0,143.377-72.001,143.377-159.329
		c0-88.488-62.83-159.325-143.377-159.325c-78.486,0-142.348,70.837-142.348,159.325
		C782.183,696.968,845.938,768.969,924.424,768.969z M1142.915,761.573h71.943V344.701h-71.943V761.573z M769.5,394.5
		 M1429.424,769.969c80.547,0,143.377-72.001,143.377-159.329c0-88.488-62.83-159.325-143.377-159.325
		c-78.486,0-142.348,70.837-142.348,159.325C1287.183,697.968,1350.938,769.969,1429.424,769.969z M-2.957,419.599h359.535h16.499
		v350.37H-2.957V419.599z M373.077,419.599L284.624,595.09l88.453,174.879V419.599z"/>
	<path d="M648.5,256.5"/>
	<ellipse fill="#FFFFFF" cx="1432.5" cy="614.483" rx="82" ry="109.187"/>
	<ellipse fill="#FFFFFF" cx="924.5" cy="615.483" rx="82" ry="109.187"/>
</g>
<rect y="263.606" width="370.12" height="112.495"/>
<path d="M376.12,769.969"/>
<text transform="matrix(1 0 0 1 101.6367 346.103)" fill="#FFFFFF" font-family="'Ebrima-Bold'" font-size="72">SEMI</text>
<path fill="#FFFFFF" d="M0,319.854"/>
<path fill="#FFFFFF" d="M-135.355,176.61"/>
<path fill="#FFFFFF" d="M64.135-82.877"/>
</svg>
