<?xml version="1.0" encoding="utf-8"?>
<!-- Generator: Adobe Illustrator 16.0.0, SVG Export Plug-In . SVG Version: 6.00 Build 0)  -->
<!DOCTYPE svg PUBLIC "-//W3C//DTD SVG 1.1//EN" "http://www.w3.org/Graphics/SVG/1.1/DTD/svg11.dtd">
<svg version="1.1" id="Layer_1" xmlns="http://www.w3.org/2000/svg" xmlns:xlink="http://www.w3.org/1999/xlink" x="0px" y="0px"
	 width="677px" height="677px" viewBox="0 0 677 677" enable-background="new 0 0 677 677" xml:space="preserve">
<rect stroke="#000000" stroke-miterlimit="10" width="677" height="677"/>
<linearGradient id="SVGID_1_" gradientUnits="userSpaceOnUse" x1="27.1504" y1="267.7251" x2="594.7842" y2="267.7251" gradientTransform="matrix(1 0 0 -1 40.8398 594.54)">
	<stop  offset="0" style="stop-color:#FFFFFF"/>
	<stop  offset="1" style="stop-color:#000000"/>
</linearGradient>
<ellipse fill="#FFFFFF" stroke="url(#SVGID_1_)" stroke-width="60" stroke-miterlimit="10" cx="351.807" cy="326.815" rx="253.817" ry="256.487"/>
<circle stroke="#E9673C" stroke-width="40" stroke-miterlimit="10" cx="350.381" cy="327.564" r="264.504"/>
<g>
	<g>
		<path fill="#FFFFFF" stroke="#E9673C" stroke-miterlimit="10" d="M456.504,471.281c1.517,0.647-12.138,9.989-29.139,15.963
			c-27.554,10.264-52.28,13.04-76.651,12.91c-24.373-0.49-48.392-3.887-74.565-14.287c-15.974-6.043-28.172-14.626-26.801-15.074
			c1.291-0.45,14.64,7.019,29.677,12.812c24.897,9.928,48.198,13.383,71.813,13.751c23.613,0.068,47.542-2.951,73.647-12.912
			C440.366,478.607,455.079,470.67,456.504,471.281z"/>
		<path fill="none" stroke="#E9673C" stroke-width="30" stroke-miterlimit="10" d="M456.504,471.281
			c1.517,0.647-12.138,9.989-29.139,15.963c-27.554,10.264-52.28,13.04-76.651,12.91c-24.373-0.49-48.392-3.887-74.565-14.287
			c-15.974-6.043-28.172-14.626-26.801-15.074c1.291-0.45,14.64,7.019,29.677,12.812c24.897,9.928,48.198,13.383,71.813,13.751
			c23.613,0.068,47.542-2.951,73.647-12.912C440.366,478.607,455.079,470.67,456.504,471.281z"/>
	</g>
</g>
<linearGradient id="SVGID_2_" gradientUnits="userSpaceOnUse" x1="644.8311" y1="-14.9517" x2="989.8506" y2="-14.9517" gradientTransform="matrix(-9.970892e-004 -0.3714 12.0388 -0.2354 537.618 1019.452)">
	<stop  offset="0" style="stop-color:#FFFFFF"/>
	<stop  offset="1" style="stop-color:#000000"/>
</linearGradient>
<linearGradient id="SVGID_3_" gradientUnits="userSpaceOnUse" x1="614.8311" y1="-14.9517" x2="1019.8506" y2="-14.9517" gradientTransform="matrix(-9.970892e-004 -0.3714 12.0388 -0.2354 537.618 1019.452)">
	<stop  offset="0" style="stop-color:#FFFFFF"/>
	<stop  offset="1" style="stop-color:#000000"/>
</linearGradient>
<path fill="url(#SVGID_2_)" stroke="url(#SVGID_3_)" stroke-width="60" stroke-miterlimit="10" d="M356.632,655.384
	c-116.739,2.283-211.294,32.815-211.198,68.197c0.098,35.376,94.801,62.208,211.541,59.928
	c116.738-2.282,211.297-32.814,211.205-68.199C568.081,679.931,473.372,653.102,356.632,655.384z"/>
<ellipse fill="#E9673C" stroke="#E9673C" stroke-width="40" stroke-miterlimit="10" cx="249.624" cy="270.785" rx="26.74" ry="24.572"/>
<ellipse fill="#E9673C" stroke="#E9673C" stroke-width="40" stroke-miterlimit="10" cx="445.248" cy="270.785" rx="26.74" ry="24.572"/>
</svg>
